# xmcd
#
# Track frame offsets:
#	150
#	17706
#	35950
#	54622
#	80547
#	103906
#	131344
#	149498
#	168824
#	197988
#	215570
#	235188
#	247776
#	269286
#	288777
#	312913
#
# Disc length: 4419 seconds
# Revision: 0
# Processed by: cddbd v1.5.2PL0 Copyright (c) Steve Scherf et al.
# Submitted via: dBpowerAMP V12.0
#
DISCID=e8114110
DTITLE=Ismerős_Arcok - Lélekvesztő
DYEAR=2009
DGENRE=
TTITLE0=Ébredes
TTITLE1=Európa_közepén
TTITLE2=Ígéret
TTITLE3=Itt_jártam
TTITLE4=Hozzád
TTITLE5=Lélekvesztő
TTITLE6=Tiszta_szívvel
TTITLE7=Magyarok
TTITLE8=Ne_gondolj_rám
TTITLE9=Trianoni_séta
TTITLE10=Minden_visszatér
TTITLE11=Szeret_vize_martján
TTITLE12=Hegyeket_nézek
TTITLE13=Csend
TTITLE14=Játsszuk_el
TTITLE15=Kesergő
EXTD=
EXTT0=
EXTT1=
EXTT2=
EXTT3=
EXTT4=
EXTT5=
EXTT6=
EXTT7=
EXTT8=
EXTT9=
EXTT10=
EXTT11=
EXTT12=
EXTT13=
EXTT14=
EXTT15=
PLAYORDER=
